<?xml version="1.0" encoding="UTF-8" standalone="no"?>
<svg
   xmlns:dc="http://purl.org/dc/elements/1.1/"
   xmlns:cc="http://creativecommons.org/ns#"
   xmlns:rdf="http://www.w3.org/1999/02/22-rdf-syntax-ns#"
   xmlns:svg="http://www.w3.org/2000/svg"
   xmlns="http://www.w3.org/2000/svg"
   xmlns:sodipodi="http://sodipodi.sourceforge.net/DTD/sodipodi-0.dtd"
   xmlns:inkscape="http://www.inkscape.org/namespaces/inkscape"
   version="1.1"
   id="Layer_1"
   x="0px"
   y="0px"
   viewBox="0 0 205 25"
   xml:space="preserve"
   sodipodi:docname="main-logo.svg"
   width="205"
   height="25"
   inkscape:version="1.0.1 (0767f8302a, 2020-10-17)"><metadata
   id="metadata31"><rdf:RDF><cc:Work
       rdf:about=""><dc:format>image/svg+xml</dc:format><dc:type
         rdf:resource="http://purl.org/dc/dcmitype/StillImage" /></cc:Work></rdf:RDF></metadata><defs
   id="defs29" /><sodipodi:namedview
   pagecolor="#ffffff"
   bordercolor="#666666"
   borderopacity="1"
   objecttolerance="10"
   gridtolerance="10"
   guidetolerance="10"
   inkscape:pageopacity="0"
   inkscape:pageshadow="2"
   inkscape:window-width="2048"
   inkscape:window-height="1078"
   id="namedview27"
   showgrid="false"
   inkscape:zoom="2.95338"
   inkscape:cx="213.72622"
   inkscape:cy="26.53655"
   inkscape:window-x="0"
   inkscape:window-y="0"
   inkscape:window-maximized="1"
   inkscape:current-layer="Layer_1" />
<style
   type="text/css"
   id="style2">
	.st0{fill:#201D0C;}
</style>
<g
   id="g24"
   transform="matrix(0.47958553,0,0,0.47104833,-0.37109369,-0.21830735)">
	<g
   id="g22">
		<path
   class="st0"
   d="m 27.38778,0.46345 c 14.78534,0 26.68869,11.82915 26.68869,26.46327 0,14.63078 -11.98139,26.60983 -26.61217,26.60983 -14.85889,0 -26.69052,-11.90569 -26.69052,-26.84111 0,-14.55591 11.83164,-26.23199 26.614,-26.23199 z m 0.07652,36.54844 c 5.46136,0 9.93127,-4.55361 9.93127,-10.01031 0,-5.38416 -4.46991,-9.78637 -9.93127,-9.78637 -5.45353,0 -9.93144,4.32734 -9.93144,9.7115 10e-6,5.53157 4.47792,10.08518 9.93144,10.08518 z"
   id="path4" />
		<path
   class="st0"
   d="m 66.65881,17.14518 c -4.92412,0 -8.26233,-3.11027 -8.26233,-7.65988 0,-2.34892 0.91026,-4.3957 2.57619,-5.83754 1.67394,-1.36296 3.48462,-1.97208 6.44499,-1.97208 h 22.29217 c 3.71439,0 5.30679,0.38034 7.0541,1.59257 2.0453,1.36547 3.25835,3.71506 3.25835,6.14135 0,1.97191 -0.45588,3.10944 -2.42463,5.83937 L 82.66072,36.55434 h 8.33553 c 3.49129,0 5.16357,0.37784 6.90422,1.66577 1.96706,1.44367 3.10526,3.64186 3.10526,6.22122 0,2.42129 -1.13819,4.77522 -2.88217,6.13818 -1.66894,1.2896 -3.18347,1.66977 -6.82433,1.66977 H 66.74017 c -4.85892,0 -8.3437,-3.26085 -8.3437,-7.88849 0,-1.66427 0.60411,-3.33004 1.59257,-4.84608 L 75.68148,17.14517 h -9.02267 z"
   id="path6" />
		<path
   class="st0"
   d="m 123.21668,41.86197 c -0.0765,4.17027 -0.30128,5.23276 -1.43633,7.0516 -1.5192,2.34975 -4.0969,3.71522 -6.90253,3.71522 -2.88216,0 -5.45836,-1.36547 -6.97105,-3.71522 -1.13654,-1.81884 -1.44268,-3.26001 -1.44268,-7.0516 V 11.38151 c 0,-3.56198 0.37934,-5.07802 1.74564,-6.8235 1.58924,-2.04528 4.01053,-3.26168 6.58989,-3.26168 2.58103,0 5.23526,1.29043 6.75613,3.26168 1.35965,1.81884 1.66093,2.88217 1.66093,7.20301 v 7.12981 h 10.16088 v -6.90437 c 0,-4.01553 0.30949,-5.53223 1.74397,-7.42844 1.5177,-2.04528 3.86896,-3.26168 6.44998,-3.26168 2.57603,0 5.15205,1.2164 6.67126,3.18581 1.28642,1.66594 1.81902,3.64019 1.81902,6.89936 v 30.63353 c 0,3.48312 -0.30615,4.84758 -1.36778,6.59239 -1.51605,2.50449 -4.16711,4.02136 -7.04929,4.02136 -2.65424,0 -5.1554,-1.2149 -6.67143,-3.33571 -1.28624,-1.82051 -1.59573,-3.26085 -1.59573,-7.27804 V 34.7315 h -10.16088 z"
   id="path8" />
		<path
   class="st0"
   d="m 163.6244,52.6288 c -4.62131,0 -8.25916,-3.64035 -8.25916,-8.34053 0,-1.44033 0.37952,-2.95704 1.06166,-4.3982 L 172.26607,6.3035 c 1.44917,-3.10927 4.32317,-5.00715 7.66139,-5.00715 3.40974,0 6.29192,1.89788 7.80963,5.08052 l 15.92537,33.96674 c 0.67732,1.28726 0.98344,2.72826 0.98344,4.0172 0,4.55278 -3.78908,8.268 -8.4169,8.268 -3.86246,0 -6.14067,-1.82134 -8.49191,-6.97523 h -15.47102 c -2.11847,4.92593 -4.61963,6.97522 -8.64167,6.97522 z m 20.24039,-19.20257 -3.94066,-9.25796 -3.92914,9.25796 z"
   id="path10" />
		<path
   class="st0"
   d="m 247.17863,39.05467 c 1.06166,1.67161 1.58774,3.64185 1.58774,5.38666 0,4.62364 -3.63284,8.18746 -8.33553,8.18746 -2.95888,0 -5.38834,-1.36547 -6.90269,-3.86829 l -6.89937,-11.44647 v 6.89687 c 0,4.77755 -3.56282,8.4179 -8.18411,8.4179 -2.50768,0 -5.00551,-1.13586 -6.52155,-3.03541 -1.37112,-1.74147 -1.97691,-3.93982 -1.97691,-7.12814 V 11.30664 c 0,-3.64185 0.76219,-5.68463 2.73413,-7.43261 1.89702,-1.66577 3.56279,-2.19835 7.57999,-2.19835 h 6.96939 c 4.10175,0 5.92392,0.22727 8.11411,0.75969 7.81277,2.19835 13.27264,9.24662 13.27264,17.43558 0,4.85425 -1.51587,8.57264 -5.37999,12.89348 z M 226.11905,23.4331 c 0,0 1.95239,0 2.33841,0 3.21767,0.09354 4.8721,-1.06899 4.8721,-3.41058 0,-2.33842 -1.75699,-3.60684 -4.96648,-3.50829 -0.49506,0 -2.24403,0 -2.24403,0 z"
   id="path12" />
		<path
   class="st0"
   d="m 285.23828,6.45423 c 1.28976,-3.11111 4.39655,-5.15789 7.73141,-5.15789 4.62131,0 8.34387,3.64185 8.34387,8.18896 0,1.36547 -0.30298,2.73077 -0.91025,3.94316 l -15.69745,33.58657 c -1.74231,3.71589 -4.46991,5.61377 -8.1109,5.61377 -3.48947,0 -6.36365,-1.89788 -7.8862,-5.15622 l -15.54253,-33.5117 c -0.83539,-1.74481 -1.21489,-3.26084 -1.21489,-4.55128 0,-4.39654 3.86897,-8.11326 8.49026,-8.11326 3.6427,0 6.52319,2.12332 8.1076,5.99078 l 8.04575,18.95645 z"
   id="path14" />
		<path
   class="st0"
   d="m 330.72485,36.62855 c 3.6427,0 5.23526,0.45671 6.97275,1.89771 1.74713,1.51437 2.7356,3.63785 2.7356,5.91507 0,2.34976 -1.065,4.62364 -2.7356,6.06231 -1.66095,1.36547 -3.10529,1.74564 -6.88971,1.74564 h -12.96985 c -3.86896,0 -4.9306,-0.15307 -6.37177,-0.68232 -2.57605,-1.06333 -4.24182,-3.10844 -4.77588,-6.06881 -0.22479,-1.05682 -0.30298,-1.51604 -0.30298,-5.00399 V 13.04895 c 0,-4.24513 0.0782,-4.77588 0.75552,-6.36845 0.68881,-1.89538 2.28137,-3.41225 4.02051,-4.16776 1.89539,-0.75885 2.27808,-0.83705 7.20218,-0.83705 h 10.01282 c 4.77274,0 5.23358,0.0782 6.36362,0.38034 3.49127,0.91026 5.76282,3.78992 5.76282,7.28204 0,2.42296 -0.98529,4.69684 -2.72592,6.14051 -1.5177,1.2871 -3.26001,1.81551 -6.3718,1.81551 h -8.33887 v 3.86012 h 6.59656 c 4.09692,0 6.75116,2.05829 6.75116,5.61944 0,1.89054 -0.83203,3.22499 -2.19986,4.36802 -1.29294,0.98196 -2.50616,1.28643 -5.15707,1.28643 h -5.99078 v 4.20045 z"
   id="path16" />
		<path
   class="st0"
   d="m 344.89975,40.72628 c 0,-4.24514 3.34308,-7.58418 7.5882,-7.58418 2.03711,0 3.78592,0.68398 5.91257,2.42462 3.6377,2.80647 4.08875,3.10861 5.30679,3.10861 1.28961,0 2.12183,-0.90859 2.12183,-2.19418 0,-0.91442 -0.37952,-1.51854 -1.28976,-2.12665 -0.45755,-0.30214 -0.68228,-0.45521 -3.34305,-1.4435 -1.35962,-0.45271 -2.71927,-0.90625 -4.08707,-1.43467 -7.36023,-2.57853 -10.99792,-7.35608 -10.99792,-14.40601 0,-9.8574 7.58652,-16.60686 18.57947,-16.60686 9.09937,0 16.22333,4.85408 16.22333,11.06963 0,4.0187 -2.72427,6.90003 -6.51501,6.90003 -2.27808,0 -4.10025,-0.75869 -6.90421,-2.88134 -1.74231,-1.44183 -2.57602,-1.81884 -3.4863,-1.81884 -1.0618,0 -1.9704,0.91109 -1.9704,1.97191 0,1.51037 1.06018,2.19585 5.00064,3.48628 4.32172,1.29127 8.41708,3.33255 10.76849,5.30613 3.10678,2.58086 5.08203,7.12814 5.08203,11.90569 0,4.54794 -1.74231,8.94948 -4.77606,12.05559 -3.41788,3.41058 -7.96417,5.07802 -14.18286,5.07802 -10.76521,-1e-5 -19.03071,-5.61061 -19.03071,-12.81028 z"
   id="path18" />
		<path
   class="st0"
   d="m 394.17877,17.21521 c -2.87564,0 -4.77438,-0.67748 -6.28876,-2.19185 -1.51602,-1.59491 -2.35123,-3.49028 -2.35123,-5.53807 0,-2.88134 1.89703,-5.91407 4.32315,-6.97256 1.74246,-0.75885 2.42795,-0.83705 9.0195,-0.83705 h 16.83398 c 4.70267,0 4.70267,0 5.68945,0.15307 4.01721,0.52841 6.82135,3.63785 6.82135,7.58085 0,2.19585 -1.05682,4.47641 -2.72595,5.98911 -1.29459,1.2139 -3.4162,1.81651 -6.44666,1.81651 h -3.71436 v 25.17684 c 0,3.03357 -0.38104,4.70268 -1.44269,6.44349 -1.5177,2.42779 -4.01718,3.79326 -6.90103,3.79326 -2.80563,0 -5.30347,-1.2906 -6.89603,-3.48728 -1.14154,-1.74631 -1.44116,-3.18748 -1.44116,-6.59806 V 17.21521 Z"
   id="path20" />
	</g>
</g>
</svg>
